PathFileType	4	(X/Y/Z)	Walk1_0-155.trc
DataRate	CameraRate	NumFrames	NumMarkers	Units	OrigDataRate	OrigDataStartFrame	OrigNumFrames
30	30	8	22	m	30	38	155
Frame#	Time	Hip			RHip			RKnee			RAnkle			RBigToe			RSmallToe			RHeel			LHip			LKnee			LAnkle			LBigToe			LSmallToe			LHeel			Neck			Head			Nose			RShoulder			RElbow			RWrist			LShoulder			LElbow			LWrist		
		X1	Y1	Z1	X2	Y2	Z2	X3	Y3	Z3	X4	Y4	Z4	X5	Y5	Z5	X6	Y6	Z6	X7	Y7	Z7	X8	Y8	Z8	X9	Y9	Z9	X10	Y10	Z10	X11	Y11	Z11	X12	Y12	Z12	X13	Y13	Z13	X14	Y14	Z14	X15	Y15	Z15	X16	Y16	Z16	X17	Y17	Z17	X18	Y18	Z18	X19	Y19	Z19	X20	Y20	Z20	X21	Y21	Z21	X22	Y22	Z22
39	1.3	-2.0946515203738767	0.8287274859735233	0.37415706696763895	-2.0579472052018617	0.8368089851893394	0.467253594111684	-1.991422351193027	0.48925299971985753	0.442087069513141	-2.01213534965367	0.09159388887857273	0.4356597686867827	0.0	0.0	0.0	0.0	0.0	0.0	0.0	0.0	0.0	-2.1292662205713326	0.8243714519388118	0.2813012597772654	-2.0748755630775633	0.45653182213980426	0.27471950811759704	-2.4049697296679384	0.18786850132394267	0.2791815871567752	0.0	0.0	0.0	0.0	0.0	0.0	0.0	0.0	0.0	-2.1623204017052435	1.413926934523221	0.33521981947130947	-1.9541350088141278	1.7167477093247567	0.3967992917320899	-1.9791049965302236	1.6428505276092074	0.35250609125119603	-2.1452276437815896	1.4070936639006584	0.5299116228441897	-2.1239356870585038	1.093468706999498	0.6085814198796843	-2.107998655129312	0.8437849579933534	0.6351187575064953	-2.177636696248134	1.4171601699291845	0.1409251165969736	-2.1442734064499622	1.0808084269989242	0.15287999154855167	-2.0762810611782903	0.8553751333991012	0.11656896119315109
40	1.3333333333333333	-2.069333694454719	0.8312232132959537	0.3773710421279891	-2.0394856332513775	0.837125477107556	0.4716342700501494	-1.988820182725247	0.48345098355631577	0.4466588834691416	-2.0133260100225656	0.09181431228358196	0.4375620416692805	0.0	0.0	0.0	0.0	0.0	0.0	0.0	0.0	0.0	-2.096699596973396	0.8291895139370525	0.28340251219733736	-2.0049179870728784	0.4694410932868361	0.2766376740878746	-2.3397601882381287	0.20497882957919122	0.2881390196663196	0.0	0.0	0.0	0.0	0.0	0.0	0.0	0.0	0.0	-2.135584202361399	1.4204007916037362	0.34188664648022915	-1.9257386802095813	1.7222974757084226	0.3985633914537108	-1.951836790758322	1.650009053162156	0.35602417600670255	-2.1197999922124344	1.4159472105567605	0.5325289671119182	-2.0832596986321748	1.0980871405712023	0.6148417914224303	-2.0500894904954134	0.8509903634012393	0.6405243492418816	-2.1527160163585406	1.424251598520523	0.1465992048372349	-2.1251215137717723	1.0866426022175806	0.15846725502957773	-2.0562827014613707	0.8623514438972434	0.12013138997474035
41	1.3666666666666667	-2.04556954936001	0.8334819820392074	0.379525296637156	-2.023197520058651	0.8368652214850218	0.4752985409197179	-1.9897519943476616	0.4793716710882031	0.44987177394883043	-2.015789622840808	0.0918828240547508	0.4395411790471245	0.0	0.0	0.0	0.0	0.0	0.0	0.0	0.0	0.0	-2.0650452263747954	0.8340838949399292	0.2840414496435354	-1.9362748693408371	0.4850865889764752	0.27848254249915577	-2.2673106712317304	0.21506789050689598	0.29722962709873535	0.0	0.0	0.0	0.0	0.0	0.0	0.0	0.0	0.0	-2.1087309807354475	1.4263328038529066	0.347682762275815	-1.899868456865021	1.7278556381273709	0.4011717423094644	-1.924011430396271	1.65596249688024	0.3586989164071812	-2.0933173553488182	1.4238080841177108	0.5361211519158449	-2.042698017520679	1.1041022639316656	0.6201612547736906	-1.9902352319909815	0.8589961551601782	0.6454092112071774	-2.1278558699818517	1.4302486092777484	0.15102804932712446	-2.105541707484559	1.0940241242443822	0.1590581802750035	-2.035999277006907	0.8682589436522208	0.12322664857441935
42	1.4	-2.0221652307450455	0.8358822288467569	0.3810563738452526	-2.007422680157136	0.8365816519201515	0.47832096946611186	-1.9922725177201277	0.47625141566516405	0.452066454781446	-2.0182960576904714	0.09142461401106138	0.4411015652668402	0.0	0.0	0.0	0.0	0.0	0.0	0.0	0.0	0.0	-2.0336754277718825	0.8392277113813361	0.2839919700864193	-1.8719820233152604	0.5021147701702949	0.2804141141806782	-2.188275114752299	0.21733104518963597	0.30495176101310517	0.0	0.0	0.0	0.0	0.0	0.0	0.0	0.0	0.0	-2.0815506879127375	1.4313274555469768	0.3522950927639975	-1.8756594068517598	1.7329623310818791	0.40408877374600655	-1.8957339008045944	1.660388642371203	0.3606586934001707	-2.065625028803514	1.4303844960821162	0.5401755352183089	-2.0027159912709207	1.1110291601405922	0.6247113046948195	-1.9293850486889275	0.8679319350404229	0.6497817519917626	-2.1027465197994486	1.4346608556861957	0.15412499439296012	-2.0855648312565243	1.1028791168091507	0.15429435185158089	-2.015411992842313	0.8724199338322995	0.12557502573706517
43	1.4333333333333331	-1.9980158915750632	0.8387676876334162	0.38237367963575764	-1.9908516848294515	0.8367960593336001	0.48073861709157006	-1.9944338295830162	0.4733497479737516	0.45390731765629777	-2.019778910446875	0.08989812364594824	0.4417979678926154	0.0	0.0	0.0	0.0	0.0	0.0	0.0	0.0	0.0	-2.001800859642587	0.8447517456492031	0.2840414788549826	-1.81441709667532	0.5185358968624589	0.282223441382154	-2.1020953721689333	0.2119750498485076	0.3103147878866913	0.0	0.0	0.0	0.0	0.0	0.0	0.0	0.0	0.0	-2.0537307647501257	1.4351227708032384	0.35560328792036355	-1.8520301769030851	1.7370690571025835	0.4066283411722684	-1.8669030626463463	1.663445437039416	0.36194140917635936	-2.0367722017679224	1.435441734671699	0.5438239658233892	-1.963300238320405	1.1179017438495649	0.6285743362799475	-1.8685524009978953	0.8776068779491343	0.6530924022525753	-2.0768491288690685	1.437474467713485	0.15617060256779267	-2.065116520020205	1.1127910876352596	0.14505672871534372	-1.9944962523029635	0.874496576777062	0.12722867348169153
44	1.4666666666666666	-1.9724085038206438	0.8418929267590797	0.38372590276218665	-1.9726343193244356	0.837452451812478	0.48257941102057367	-1.9949680527936837	0.47032377540558545	0.4555602855528873	-2.0197316161940453	0.0868046165175299	0.44128886560524233	0.0	0.0	0.0	0.0	0.0	0.0	0.0	0.0	0.0	-1.9689364275218009	0.8501946765430406	0.2846955202496807	-1.7650679437157235	0.531992504669476	0.2834876931644607	-2.0080683399710315	0.20005937298963453	0.31286511658969857	0.0	0.0	0.0	0.0	0.0	0.0	0.0	0.0	0.0	-2.02490899247651	1.4375585701729343	0.3577543231036962	-1.827415621871704	1.7397168600358908	0.4078960041296667	-1.8374210657889822	1.6651480470110205	0.36282333234112846	-2.006855321419478	1.4387104976801803	0.5464520441279483	-1.9243030368065073	1.1236557122949793	0.6317423876423603	-1.8086630272819462	0.8875131682650992	0.6545498831169416	-2.0495131826243402	1.438949997214455	0.15766239920075154	-2.0437889089907633	1.1224970796307194	0.13390253035887842	-1.9731060672052863	0.8744633317570466	0.12842952893888854
45	1.5	-1.945234335791877	0.8443722010098144	0.3851865163132831	-1.9523516229521873	0.8379124666978609	0.48398219481491067	-1.9930684111677273	0.4671363169781764	0.45676498639202195	-2.0185276656092253	0.08205542459330754	0.4396144322085074	0.0	0.0	0.0	0.0	0.0	0.0	0.0	0.0	0.0	-1.9353350455694172	0.8544104461835399	0.2860067441037555	-1.7241878953731251	0.5403354541506455	0.28408085874767136	-1.9068687049887696	0.18379379219227943	0.31251689763420776	0.0	0.0	0.0	0.0	0.0	0.0	0.0	0.0	0.0	-1.9948362152318029	1.4385123657620125	0.3590201757427999	-1.8004178115132126	1.7407793742227506	0.4072210101463909	-1.8072115386589778	1.6654850592844477	0.3637484786913042	-1.9760711881510038	1.4400008781286702	0.5478826659515336	-1.8856150255141992	1.127269406020313	0.6343354014637436	-1.7505015118620235	0.8969552622340637	0.6536162115602957	-2.020234532901697	1.4392650270314877	0.15896695805016425	-2.0206830760610104	1.130167677435157	0.12415612794499868	-1.9510197577420252	0.8724909568669484	0.12936798996475124
46	1.5333333333333334	-1.9167836549642523	0.8451461427987648	0.38662942743063966	-1.9298565927864462	0.8373354055403963	0.4851488602487235	-1.9879403968894809	0.4639719190162937	0.45739459800455073	-2.0169986666726296	0.07635828445885594	0.4374092047341998	0.0	0.0	0.0	0.0	0.0	0.0	0.0	0.0	0.0	-1.9017099592607845	0.856125339171415	0.2875578730953151	-1.690561172653678	0.5423515410122196	0.2845105801053518	-1.8015938236973807	0.16659762915736862	0.30950919431832913	0.0	0.0	0.0	0.0	0.0	0.0	0.0	0.0	0.0	-1.9634524645975029	1.4378786206878669	0.3596321417546128	-1.7706703238765567	1.7405146447858177	0.40452476534255327	-1.776130225002916	1.664824896344223	0.3649037785556124	-1.9447088993811177	1.4392802312852524	0.5482280527265337	-1.8472911421412375	1.1280495708218616	0.6365096031907015	-1.6949142714649967	0.9053033873709452	0.650419483505528	-1.988804019087362	1.438377392877858	0.16017950474219655	-1.9947981485599362	1.1344395975953276	0.11797969549391711	-1.9279963007949863	0.8689421977170898	0.1300701268186135
